<svg width="100" height="100" viewBox="0 0 100 100" fill="none" xmlns="http://www.w3.org/2000/svg">
  <circle cx="50" cy="50" r="50" fill="#2F80C3"/>
  <path d="M35 35C35 30 38 25 45 25C55 25 65 35 65 45C65 55 60 65 50 70C40 75 30 70 25 60" stroke="white" stroke-width="6" stroke-linecap="round"/>
  <path d="M25 60C20 50 25 35 35 30" stroke="white" stroke-width="6" stroke-linecap="round"/>
  <path d="M65 45C70 50 70 60 65 70" stroke="white" stroke-width="6" stroke-linecap="round"/>
  <path d="M50 55C45 55 40 50 40 45C40 40 45 35 50 35C55 35 60 40 60 45C60 50 55 55 50 55Z" fill="white"/>
  <path d="M46 42C47.5 42 48.5 43 48.5 44.5C48.5 46 47.5 47 46 47C44.5 47 43.5 46 43.5 44.5C43.5 43 44.5 42 46 42Z" fill="#2F80C3"/>
  <path d="M55 38L65 30" stroke="white" stroke-width="6" stroke-linecap="round"/>
  <path d="M60 32L70 32" stroke="white" stroke-width="6" stroke-linecap="round"/>
</svg> 